<svg width="164" height="52" viewBox="0 0 164 52" fill="none" xmlns="http://www.w3.org/2000/svg">
<path d="M74.6636 19.202V38H71.1536V29.784H62.3266V38H58.8166V19.202H62.3266V27.288H71.1536V19.202H74.6636ZM81.4931 24.662V38H78.2691V24.662H81.4931ZM81.9351 20.775C81.9351 21.0523 81.8788 21.3123 81.7661 21.555C81.6534 21.7977 81.5018 22.01 81.3111 22.192C81.1291 22.374 80.9124 22.5213 80.6611 22.634C80.4098 22.738 80.1411 22.79 79.8551 22.79C79.5778 22.79 79.3134 22.738 79.0621 22.634C78.8194 22.5213 78.6071 22.374 78.4251 22.192C78.2431 22.01 78.0958 21.7977 77.9831 21.555C77.8791 21.3123 77.8271 21.0523 77.8271 20.775C77.8271 20.489 77.8791 20.2203 77.9831 19.969C78.0958 19.7177 78.2431 19.501 78.4251 19.319C78.6071 19.137 78.8194 18.994 79.0621 18.89C79.3134 18.7773 79.5778 18.721 79.8551 18.721C80.1411 18.721 80.4098 18.7773 80.6611 18.89C80.9124 18.994 81.1291 19.137 81.3111 19.319C81.5018 19.501 81.6534 19.7177 81.7661 19.969C81.8788 20.2203 81.9351 20.489 81.9351 20.775ZM87.7957 26.976C88.2117 26.1787 88.7057 25.5547 89.2777 25.104C89.8497 24.6447 90.5257 24.415 91.3057 24.415C91.921 24.415 92.415 24.5493 92.7877 24.818L92.5797 27.223C92.5363 27.379 92.4713 27.4917 92.3847 27.561C92.3067 27.6217 92.1983 27.652 92.0597 27.652C91.9297 27.652 91.7347 27.6303 91.4747 27.587C91.2233 27.5437 90.9763 27.522 90.7337 27.522C90.3783 27.522 90.062 27.574 89.7847 27.678C89.5073 27.782 89.256 27.9337 89.0307 28.133C88.814 28.3237 88.619 28.5577 88.4457 28.835C88.281 29.1123 88.125 29.4287 87.9777 29.784V38H84.7667V24.662H86.6517C86.981 24.662 87.2107 24.7227 87.3407 24.844C87.4707 24.9567 87.5573 25.1647 87.6007 25.468L87.7957 26.976ZM102.678 29.797C102.678 29.381 102.617 28.991 102.496 28.627C102.383 28.2543 102.21 27.9293 101.976 27.652C101.742 27.3747 101.443 27.158 101.079 27.002C100.724 26.8373 100.308 26.755 99.831 26.755C98.9037 26.755 98.1714 27.0193 97.634 27.548C97.1054 28.0767 96.7674 28.8263 96.62 29.797H102.678ZM96.555 31.734C96.607 32.4187 96.7284 33.0123 96.919 33.515C97.1097 34.009 97.361 34.4207 97.673 34.75C97.985 35.0707 98.3534 35.3133 98.778 35.478C99.2114 35.634 99.688 35.712 100.208 35.712C100.728 35.712 101.174 35.6513 101.547 35.53C101.928 35.4087 102.258 35.2743 102.535 35.127C102.821 34.9797 103.068 34.8453 103.276 34.724C103.493 34.6027 103.701 34.542 103.9 34.542C104.169 34.542 104.368 34.6417 104.498 34.841L105.421 36.011C105.066 36.427 104.667 36.778 104.225 37.064C103.783 37.3413 103.319 37.5667 102.834 37.74C102.357 37.9047 101.868 38.0217 101.365 38.091C100.871 38.1603 100.39 38.195 99.922 38.195C98.9947 38.195 98.1324 38.0433 97.335 37.74C96.5377 37.428 95.8444 36.973 95.255 36.375C94.6657 35.7683 94.202 35.023 93.864 34.139C93.526 33.2463 93.357 32.215 93.357 31.045C93.357 30.135 93.5044 29.2813 93.799 28.484C94.0937 27.678 94.514 26.9803 95.06 26.391C95.6147 25.793 96.2864 25.3207 97.075 24.974C97.8724 24.6273 98.7694 24.454 99.766 24.454C100.607 24.454 101.382 24.5883 102.093 24.857C102.804 25.1257 103.415 25.52 103.926 26.04C104.437 26.5513 104.836 27.184 105.122 27.938C105.417 28.6833 105.564 29.537 105.564 30.499C105.564 30.9843 105.512 31.3137 105.408 31.487C105.304 31.6517 105.105 31.734 104.81 31.734H96.555ZM118.237 22.621C118.133 22.803 118.02 22.9373 117.899 23.024C117.786 23.102 117.643 23.141 117.47 23.141C117.288 23.141 117.088 23.076 116.872 22.946C116.664 22.8073 116.412 22.6557 116.118 22.491C115.823 22.3263 115.476 22.179 115.078 22.049C114.688 21.9103 114.224 21.841 113.687 21.841C113.201 21.841 112.777 21.9017 112.413 22.023C112.049 22.1357 111.741 22.296 111.49 22.504C111.247 22.712 111.065 22.9633 110.944 23.258C110.822 23.544 110.762 23.8603 110.762 24.207C110.762 24.649 110.883 25.0173 111.126 25.312C111.377 25.6067 111.706 25.858 112.114 26.066C112.521 26.274 112.985 26.4603 113.505 26.625C114.025 26.7897 114.558 26.9673 115.104 27.158C115.65 27.34 116.183 27.5567 116.703 27.808C117.223 28.0507 117.686 28.3627 118.094 28.744C118.501 29.1167 118.826 29.576 119.069 30.122C119.32 30.668 119.446 31.331 119.446 32.111C119.446 32.9603 119.298 33.7577 119.004 34.503C118.718 35.2397 118.293 35.8853 117.73 36.44C117.175 36.986 116.495 37.4193 115.689 37.74C114.883 38.052 113.96 38.208 112.92 38.208C112.322 38.208 111.732 38.1473 111.152 38.026C110.571 37.9133 110.012 37.7487 109.475 37.532C108.946 37.3153 108.448 37.0553 107.98 36.752C107.512 36.4487 107.096 36.1107 106.732 35.738L107.759 34.061C107.845 33.9397 107.958 33.84 108.097 33.762C108.235 33.6753 108.383 33.632 108.539 33.632C108.755 33.632 108.989 33.723 109.241 33.905C109.492 34.0783 109.791 34.2733 110.138 34.49C110.484 34.7067 110.887 34.906 111.347 35.088C111.815 35.2613 112.374 35.348 113.024 35.348C114.02 35.348 114.792 35.114 115.338 34.646C115.884 34.1693 116.157 33.489 116.157 32.605C116.157 32.111 116.031 31.708 115.78 31.396C115.537 31.084 115.212 30.824 114.805 30.616C114.397 30.3993 113.934 30.2173 113.414 30.07C112.894 29.9227 112.365 29.7623 111.828 29.589C111.29 29.4157 110.762 29.2077 110.242 28.965C109.722 28.7223 109.258 28.406 108.851 28.016C108.443 27.626 108.114 27.1407 107.863 26.56C107.62 25.9707 107.499 25.247 107.499 24.389C107.499 23.7043 107.633 23.037 107.902 22.387C108.179 21.737 108.578 21.1607 109.098 20.658C109.618 20.1553 110.259 19.7523 111.022 19.449C111.784 19.1457 112.66 18.994 113.648 18.994C114.757 18.994 115.78 19.1673 116.716 19.514C117.652 19.8607 118.449 20.346 119.108 20.97L118.237 22.621ZM124.946 34.542C125.31 34.984 125.705 35.296 126.129 35.478C126.563 35.66 127.031 35.751 127.533 35.751C128.019 35.751 128.456 35.66 128.846 35.478C129.236 35.296 129.566 35.0187 129.834 34.646C130.112 34.2733 130.324 33.8053 130.471 33.242C130.619 32.67 130.692 31.9983 130.692 31.227C130.692 30.447 130.627 29.7883 130.497 29.251C130.376 28.705 130.198 28.263 129.964 27.925C129.73 27.587 129.444 27.34 129.106 27.184C128.777 27.028 128.4 26.95 127.975 26.95C127.308 26.95 126.74 27.093 126.272 27.379C125.804 27.6563 125.362 28.0507 124.946 28.562V34.542ZM124.777 26.482C125.323 25.8667 125.943 25.3683 126.636 24.987C127.33 24.6057 128.144 24.415 129.08 24.415C129.808 24.415 130.471 24.5667 131.069 24.87C131.676 25.1733 132.196 25.6153 132.629 26.196C133.071 26.768 133.409 27.4787 133.643 28.328C133.886 29.1687 134.007 30.135 134.007 31.227C134.007 32.2237 133.873 33.1467 133.604 33.996C133.336 34.8453 132.95 35.582 132.447 36.206C131.953 36.83 131.351 37.3197 130.64 37.675C129.938 38.0217 129.15 38.195 128.274 38.195C127.529 38.195 126.892 38.0823 126.363 37.857C125.835 37.623 125.362 37.3023 124.946 36.895V42.355H121.735V24.662H123.698C124.114 24.662 124.387 24.857 124.517 25.247L124.777 26.482ZM142.415 24.454C143.403 24.454 144.3 24.6143 145.106 24.935C145.92 25.2557 146.614 25.7107 147.186 26.3C147.766 26.8893 148.213 27.6087 148.525 28.458C148.837 29.3073 148.993 30.2563 148.993 31.305C148.993 32.3623 148.837 33.3157 148.525 34.165C148.213 35.0143 147.766 35.738 147.186 36.336C146.614 36.934 145.92 37.3933 145.106 37.714C144.3 38.0347 143.403 38.195 142.415 38.195C141.418 38.195 140.512 38.0347 139.698 37.714C138.883 37.3933 138.185 36.934 137.605 36.336C137.033 35.738 136.586 35.0143 136.266 34.165C135.954 33.3157 135.798 32.3623 135.798 31.305C135.798 30.2563 135.954 29.3073 136.266 28.458C136.586 27.6087 137.033 26.8893 137.605 26.3C138.185 25.7107 138.883 25.2557 139.698 24.935C140.512 24.6143 141.418 24.454 142.415 24.454ZM142.415 35.725C143.524 35.725 144.343 35.3523 144.872 34.607C145.409 33.8617 145.678 32.7697 145.678 31.331C145.678 29.8923 145.409 28.796 144.872 28.042C144.343 27.288 143.524 26.911 142.415 26.911C141.288 26.911 140.452 27.2923 139.906 28.055C139.368 28.809 139.1 29.901 139.1 31.331C139.1 32.761 139.368 33.853 139.906 34.607C140.452 35.3523 141.288 35.725 142.415 35.725ZM155.635 38.208C154.473 38.208 153.581 37.883 152.957 37.233C152.341 36.5743 152.034 35.6687 152.034 34.516V27.067H150.669C150.495 27.067 150.348 27.0107 150.227 26.898C150.105 26.7853 150.045 26.6163 150.045 26.391V25.117L152.19 24.766L152.866 21.126C152.909 20.9527 152.991 20.8183 153.113 20.723C153.234 20.6277 153.39 20.58 153.581 20.58H155.245V24.779H158.807V27.067H155.245V34.295C155.245 34.711 155.344 35.036 155.544 35.27C155.752 35.504 156.033 35.621 156.389 35.621C156.588 35.621 156.753 35.5993 156.883 35.556C157.021 35.504 157.138 35.452 157.234 35.4C157.338 35.348 157.429 35.3003 157.507 35.257C157.585 35.205 157.663 35.179 157.741 35.179C157.836 35.179 157.914 35.205 157.975 35.257C158.035 35.3003 158.1 35.3697 158.17 35.465L159.132 37.025C158.664 37.415 158.126 37.7097 157.52 37.909C156.913 38.1083 156.285 38.208 155.635 38.208Z" fill="#241B4B"/>
<path d="M10.6373 32.6718L9.80834 31.8299C8.49545 30.4967 6.15157 30.496 6 32.361V34.4696C6 35.6687 6.03827 36.8791 6.35497 38.0356C6.58415 38.8725 6.90595 39.6351 7.44377 40.6692C8.35769 42.4165 9.00068 43.2622 10.3313 44.579C11.3777 45.6038 12.2301 46.2943 13.2372 46.8466C15.0376 47.8339 17.1506 48 19.2039 48C20.9814 48 22.7902 47.863 24.4148 47.142C24.5792 47.069 24.7421 46.9925 24.9053 46.9115C26.4804 46.1299 27.787 44.9138 28.9994 43.6402L39.882 32.2077C40.6947 31.354 41.6799 30.2406 40.836 29.4178C40.5525 29.1414 39.9805 28.8741 39.6001 28.7645C39.0213 28.5977 38.5397 28.5073 37.763 28.4513C35.8108 28.3965 34.1702 29.6562 32.7999 31.0477L23.8065 40.1805C22.1857 41.6338 21.1287 42.0513 18.9939 42.1354C16.7214 41.9104 15.1439 40.6692 14.1814 39.6918C13.38 38.878 12.5034 37.8108 12.0173 35.4311C11.8071 34.4025 11.374 33.4198 10.6373 32.6718Z" fill="url(#paint0_linear_5_34)"/>
<path d="M34.6718 43.3627L33.8299 44.1917C32.4967 45.5045 32.496 47.8484 34.361 48H36.4696C37.6687 48 38.8791 47.9617 40.0356 47.645C40.8725 47.4158 41.6351 47.0941 42.6692 46.5562C44.4165 45.6423 45.2622 44.9993 46.579 43.6687C47.6038 42.6223 48.2943 41.7699 48.8466 40.7628C49.8339 38.9624 50 36.8494 50 34.7961C50 33.0186 49.863 31.2098 49.142 29.5852C49.069 29.4208 48.9925 29.2579 48.9115 29.0947C48.1299 27.5196 46.9138 26.213 45.6402 25.0006L34.2077 14.118C33.354 13.3053 32.2406 12.3201 31.4178 13.164C31.1414 13.4475 30.8741 14.0195 30.7645 14.3999C30.5977 14.9787 30.5073 15.4603 30.4513 16.237C30.3965 18.1892 31.6562 19.8298 33.0477 21.2001L42.1805 30.1935C43.6338 31.8143 44.0513 32.8713 44.1354 35.0061C43.9104 37.2786 42.6692 38.8561 41.6918 39.8186C40.878 40.62 39.8108 41.4966 37.4311 41.9827C36.4025 42.1929 35.4198 42.626 34.6718 43.3627Z" fill="url(#paint1_linear_5_34)"/>
<path d="M45.3627 19.3282L46.1917 20.1701C47.5045 21.5033 49.8484 21.504 50 19.639V17.5304C50 16.3313 49.9617 15.1209 49.645 13.9644C49.4158 13.1275 49.0941 12.3649 48.5562 11.3308C47.6423 9.5835 46.9993 8.73777 45.6687 7.42103C44.6223 6.39622 43.7699 5.70574 42.7628 5.15343C40.9624 4.16611 38.8494 4 36.7961 4C35.0186 4 33.2098 4.13701 31.5852 4.85802C31.4208 4.93098 31.2579 5.00751 31.0947 5.08848C29.5196 5.87005 28.213 7.08619 27.0006 8.35981L16.118 19.7923C15.3053 20.646 14.3201 21.7594 15.164 22.5822C15.4475 22.8586 16.0195 23.1259 16.3999 23.2355C16.9787 23.4023 17.4603 23.4927 18.237 23.5487C20.1892 23.6035 21.8298 22.3438 23.2001 20.9523L32.1935 11.8195C33.8143 10.3662 34.8713 9.94865 37.0061 9.86462C39.2786 10.0896 40.8561 11.3308 41.8186 12.3082C42.62 13.122 43.4966 14.1892 43.9827 16.5689C44.1929 17.5975 44.626 18.5802 45.3627 19.3282Z" fill="url(#paint2_linear_5_34)"/>
<path d="M21.3282 8.63735L22.1701 7.80834C23.5033 6.49545 23.504 4.15157 21.639 4H19.5304C18.3313 4 17.1209 4.03827 15.9644 4.35497C15.1275 4.58415 14.3649 4.90595 13.3308 5.44377C11.5835 6.35769 10.7378 7.00068 9.42103 8.33131C8.39622 9.37766 7.70574 10.2301 7.15343 11.2372C6.16611 13.0376 6 15.1506 6 17.2039C6 18.9814 6.13701 20.7902 6.85802 22.4148C6.93098 22.5792 7.00751 22.7421 7.08848 22.9053C7.87005 24.4804 9.08619 25.787 10.3598 26.9994L21.7923 37.882C22.646 38.6947 23.7594 39.6799 24.5822 38.836C24.8586 38.5525 25.1259 37.9805 25.2355 37.6001C25.4023 37.0213 25.4927 36.5397 25.5487 35.763C25.6035 33.8108 24.3438 32.1702 22.9523 30.7999L13.8195 21.8065C12.3662 20.1857 11.9487 19.1287 11.8646 16.9939C12.0896 14.7214 13.3308 13.1439 14.3082 12.1814C15.122 11.38 16.1892 10.5034 18.5689 10.0173C19.5975 9.80713 20.5802 9.37396 21.3282 8.63735Z" fill="url(#paint3_linear_5_34)"/>
<defs>
<linearGradient id="paint0_linear_5_34" x1="23.6" y1="28.4444" x2="23.6" y2="48" gradientUnits="userSpaceOnUse">
<stop stop-color="#6446E6"/>
<stop offset="1" stop-color="#8580F9"/>
</linearGradient>
<linearGradient id="paint1_linear_5_34" x1="30.4444" y1="30.4" x2="50" y2="30.4" gradientUnits="userSpaceOnUse">
<stop stop-color="#6446E6"/>
<stop offset="1" stop-color="#8580F9"/>
</linearGradient>
<linearGradient id="paint2_linear_5_34" x1="32.4" y1="23.5556" x2="32.4" y2="4" gradientUnits="userSpaceOnUse">
<stop stop-color="#6446E6"/>
<stop offset="1" stop-color="#8580F9"/>
</linearGradient>
<linearGradient id="paint3_linear_5_34" x1="25.5556" y1="21.6" x2="6" y2="21.6" gradientUnits="userSpaceOnUse">
<stop stop-color="#6446E6"/>
<stop offset="1" stop-color="#8580F9"/>
</linearGradient>
</defs>
</svg>
