<svg width="164" height="52" viewBox="0 0 164 52" fill="none" xmlns="http://www.w3.org/2000/svg">
<path d="M74.847 14.481V33.279H71.337V25.063H62.51V33.279H59V14.481H62.51V22.567H71.337V14.481H74.847ZM81.6765 19.941V33.279H78.4525V19.941H81.6765ZM82.1185 16.054C82.1185 16.3313 82.0622 16.5913 81.9495 16.834C81.8368 17.0767 81.6852 17.289 81.4945 17.471C81.3125 17.653 81.0958 17.8003 80.8445 17.913C80.5932 18.017 80.3245 18.069 80.0385 18.069C79.7612 18.069 79.4968 18.017 79.2455 17.913C79.0028 17.8003 78.7905 17.653 78.6085 17.471C78.4265 17.289 78.2792 17.0767 78.1665 16.834C78.0625 16.5913 78.0105 16.3313 78.0105 16.054C78.0105 15.768 78.0625 15.4993 78.1665 15.248C78.2792 14.9967 78.4265 14.78 78.6085 14.598C78.7905 14.416 79.0028 14.273 79.2455 14.169C79.4968 14.0563 79.7612 14 80.0385 14C80.3245 14 80.5932 14.0563 80.8445 14.169C81.0958 14.273 81.3125 14.416 81.4945 14.598C81.6852 14.78 81.8368 14.9967 81.9495 15.248C82.0622 15.4993 82.1185 15.768 82.1185 16.054ZM87.9791 22.255C88.3951 21.4577 88.8891 20.8337 89.4611 20.383C90.0331 19.9237 90.7091 19.694 91.4891 19.694C92.1044 19.694 92.5984 19.8283 92.9711 20.097L92.7631 22.502C92.7197 22.658 92.6547 22.7707 92.5681 22.84C92.4901 22.9007 92.3817 22.931 92.2431 22.931C92.1131 22.931 91.9181 22.9093 91.6581 22.866C91.4067 22.8227 91.1597 22.801 90.9171 22.801C90.5617 22.801 90.2454 22.853 89.9681 22.957C89.6907 23.061 89.4394 23.2127 89.2141 23.412C88.9974 23.6027 88.8024 23.8367 88.6291 24.114C88.4644 24.3913 88.3084 24.7077 88.1611 25.063V33.279H84.9501V19.941H86.8351C87.1644 19.941 87.3941 20.0017 87.5241 20.123C87.6541 20.2357 87.7407 20.4437 87.7841 20.747L87.9791 22.255ZM102.861 25.076C102.861 24.66 102.8 24.27 102.679 23.906C102.566 23.5333 102.393 23.2083 102.159 22.931C101.925 22.6537 101.626 22.437 101.262 22.281C100.907 22.1163 100.491 22.034 100.014 22.034C99.0871 22.034 98.3548 22.2983 97.8174 22.827C97.2888 23.3557 96.9508 24.1053 96.8034 25.076H102.861ZM96.7384 27.013C96.7904 27.6977 96.9118 28.2913 97.1024 28.794C97.2931 29.288 97.5444 29.6997 97.8564 30.029C98.1684 30.3497 98.5368 30.5923 98.9614 30.757C99.3948 30.913 99.8714 30.991 100.391 30.991C100.911 30.991 101.357 30.9303 101.73 30.809C102.111 30.6877 102.441 30.5533 102.718 30.406C103.004 30.2587 103.251 30.1243 103.459 30.003C103.676 29.8817 103.884 29.821 104.083 29.821C104.352 29.821 104.551 29.9207 104.681 30.12L105.604 31.29C105.249 31.706 104.85 32.057 104.408 32.343C103.966 32.6203 103.502 32.8457 103.017 33.019C102.54 33.1837 102.051 33.3007 101.548 33.37C101.054 33.4393 100.573 33.474 100.105 33.474C99.1781 33.474 98.3158 33.3223 97.5184 33.019C96.7211 32.707 96.0278 32.252 95.4384 31.654C94.8491 31.0473 94.3854 30.302 94.0474 29.418C93.7094 28.5253 93.5404 27.494 93.5404 26.324C93.5404 25.414 93.6878 24.5603 93.9824 23.763C94.2771 22.957 94.6974 22.2593 95.2434 21.67C95.7981 21.072 96.4698 20.5997 97.2584 20.253C98.0558 19.9063 98.9528 19.733 99.9494 19.733C100.79 19.733 101.565 19.8673 102.276 20.136C102.987 20.4047 103.598 20.799 104.109 21.319C104.62 21.8303 105.019 22.463 105.305 23.217C105.6 23.9623 105.747 24.816 105.747 25.778C105.747 26.2633 105.695 26.5927 105.591 26.766C105.487 26.9307 105.288 27.013 104.993 27.013H96.7384ZM118.42 17.9C118.316 18.082 118.203 18.2163 118.082 18.303C117.969 18.381 117.826 18.42 117.653 18.42C117.471 18.42 117.271 18.355 117.055 18.225C116.847 18.0863 116.595 17.9347 116.301 17.77C116.006 17.6053 115.659 17.458 115.261 17.328C114.871 17.1893 114.407 17.12 113.87 17.12C113.384 17.12 112.96 17.1807 112.596 17.302C112.232 17.4147 111.924 17.575 111.673 17.783C111.43 17.991 111.248 18.2423 111.127 18.537C111.005 18.823 110.945 19.1393 110.945 19.486C110.945 19.928 111.066 20.2963 111.309 20.591C111.56 20.8857 111.889 21.137 112.297 21.345C112.704 21.553 113.168 21.7393 113.688 21.904C114.208 22.0687 114.741 22.2463 115.287 22.437C115.833 22.619 116.366 22.8357 116.886 23.087C117.406 23.3297 117.869 23.6417 118.277 24.023C118.684 24.3957 119.009 24.855 119.252 25.401C119.503 25.947 119.629 26.61 119.629 27.39C119.629 28.2393 119.481 29.0367 119.187 29.782C118.901 30.5187 118.476 31.1643 117.913 31.719C117.358 32.265 116.678 32.6983 115.872 33.019C115.066 33.331 114.143 33.487 113.103 33.487C112.505 33.487 111.915 33.4263 111.335 33.305C110.754 33.1923 110.195 33.0277 109.658 32.811C109.129 32.5943 108.631 32.3343 108.163 32.031C107.695 31.7277 107.279 31.3897 106.915 31.017L107.942 29.34C108.028 29.2187 108.141 29.119 108.28 29.041C108.418 28.9543 108.566 28.911 108.722 28.911C108.938 28.911 109.172 29.002 109.424 29.184C109.675 29.3573 109.974 29.5523 110.321 29.769C110.667 29.9857 111.07 30.185 111.53 30.367C111.998 30.5403 112.557 30.627 113.207 30.627C114.203 30.627 114.975 30.393 115.521 29.925C116.067 29.4483 116.34 28.768 116.34 27.884C116.34 27.39 116.214 26.987 115.963 26.675C115.72 26.363 115.395 26.103 114.988 25.895C114.58 25.6783 114.117 25.4963 113.597 25.349C113.077 25.2017 112.548 25.0413 112.011 24.868C111.473 24.6947 110.945 24.4867 110.425 24.244C109.905 24.0013 109.441 23.685 109.034 23.295C108.626 22.905 108.297 22.4197 108.046 21.839C107.803 21.2497 107.682 20.526 107.682 19.668C107.682 18.9833 107.816 18.316 108.085 17.666C108.362 17.016 108.761 16.4397 109.281 15.937C109.801 15.4343 110.442 15.0313 111.205 14.728C111.967 14.4247 112.843 14.273 113.831 14.273C114.94 14.273 115.963 14.4463 116.899 14.793C117.835 15.1397 118.632 15.625 119.291 16.249L118.42 17.9ZM125.129 29.821C125.493 30.263 125.888 30.575 126.312 30.757C126.746 30.939 127.214 31.03 127.716 31.03C128.202 31.03 128.639 30.939 129.029 30.757C129.419 30.575 129.749 30.2977 130.017 29.925C130.295 29.5523 130.507 29.0843 130.654 28.521C130.802 27.949 130.875 27.2773 130.875 26.506C130.875 25.726 130.81 25.0673 130.68 24.53C130.559 23.984 130.381 23.542 130.147 23.204C129.913 22.866 129.627 22.619 129.289 22.463C128.96 22.307 128.583 22.229 128.158 22.229C127.491 22.229 126.923 22.372 126.455 22.658C125.987 22.9353 125.545 23.3297 125.129 23.841V29.821ZM124.96 21.761C125.506 21.1457 126.126 20.6473 126.819 20.266C127.513 19.8847 128.327 19.694 129.263 19.694C129.991 19.694 130.654 19.8457 131.252 20.149C131.859 20.4523 132.379 20.8943 132.812 21.475C133.254 22.047 133.592 22.7577 133.826 23.607C134.069 24.4477 134.19 25.414 134.19 26.506C134.19 27.5027 134.056 28.4257 133.787 29.275C133.519 30.1243 133.133 30.861 132.63 31.485C132.136 32.109 131.534 32.5987 130.823 32.954C130.121 33.3007 129.333 33.474 128.457 33.474C127.712 33.474 127.075 33.3613 126.546 33.136C126.018 32.902 125.545 32.5813 125.129 32.174V37.634H121.918V19.941H123.881C124.297 19.941 124.57 20.136 124.7 20.526L124.96 21.761ZM142.598 19.733C143.586 19.733 144.483 19.8933 145.289 20.214C146.103 20.5347 146.797 20.9897 147.369 21.579C147.949 22.1683 148.396 22.8877 148.708 23.737C149.02 24.5863 149.176 25.5353 149.176 26.584C149.176 27.6413 149.02 28.5947 148.708 29.444C148.396 30.2933 147.949 31.017 147.369 31.615C146.797 32.213 146.103 32.6723 145.289 32.993C144.483 33.3137 143.586 33.474 142.598 33.474C141.601 33.474 140.695 33.3137 139.881 32.993C139.066 32.6723 138.368 32.213 137.788 31.615C137.216 31.017 136.769 30.2933 136.449 29.444C136.137 28.5947 135.981 27.6413 135.981 26.584C135.981 25.5353 136.137 24.5863 136.449 23.737C136.769 22.8877 137.216 22.1683 137.788 21.579C138.368 20.9897 139.066 20.5347 139.881 20.214C140.695 19.8933 141.601 19.733 142.598 19.733ZM142.598 31.004C143.707 31.004 144.526 30.6313 145.055 29.886C145.592 29.1407 145.861 28.0487 145.861 26.61C145.861 25.1713 145.592 24.075 145.055 23.321C144.526 22.567 143.707 22.19 142.598 22.19C141.471 22.19 140.635 22.5713 140.089 23.334C139.551 24.088 139.283 25.18 139.283 26.61C139.283 28.04 139.551 29.132 140.089 29.886C140.635 30.6313 141.471 31.004 142.598 31.004ZM155.818 33.487C154.656 33.487 153.764 33.162 153.14 32.512C152.524 31.8533 152.217 30.9477 152.217 29.795V22.346H150.852C150.678 22.346 150.531 22.2897 150.41 22.177C150.288 22.0643 150.228 21.8953 150.228 21.67V20.396L152.373 20.045L153.049 16.405C153.092 16.2317 153.174 16.0973 153.296 16.002C153.417 15.9067 153.573 15.859 153.764 15.859H155.428V20.058H158.99V22.346H155.428V29.574C155.428 29.99 155.527 30.315 155.727 30.549C155.935 30.783 156.216 30.9 156.572 30.9C156.771 30.9 156.936 30.8783 157.066 30.835C157.204 30.783 157.321 30.731 157.417 30.679C157.521 30.627 157.612 30.5793 157.69 30.536C157.768 30.484 157.846 30.458 157.924 30.458C158.019 30.458 158.097 30.484 158.158 30.536C158.218 30.5793 158.283 30.6487 158.353 30.744L159.315 32.304C158.847 32.694 158.309 32.9887 157.703 33.188C157.096 33.3873 156.468 33.487 155.818 33.487Z" fill="#241B4B"/>
<path d="M10.6373 32.6718L9.80834 31.8299C8.49545 30.4967 6.15157 30.496 6 32.361V34.4696C6 35.6687 6.03827 36.8791 6.35497 38.0356C6.58415 38.8725 6.90595 39.6351 7.44377 40.6692C8.35769 42.4165 9.00068 43.2622 10.3313 44.579C11.3777 45.6038 12.2301 46.2943 13.2372 46.8466C15.0376 47.8339 17.1506 48 19.2039 48C20.9814 48 22.7902 47.863 24.4148 47.142C24.5792 47.069 24.7421 46.9925 24.9053 46.9115C26.4804 46.1299 27.787 44.9138 28.9994 43.6402L39.882 32.2077C40.6947 31.354 41.6799 30.2406 40.836 29.4178C40.5525 29.1414 39.9805 28.8741 39.6001 28.7645C39.0213 28.5977 38.5397 28.5073 37.763 28.4513C35.8108 28.3965 34.1702 29.6562 32.7999 31.0477L23.8065 40.1805C22.1857 41.6338 21.1287 42.0513 18.9939 42.1354C16.7214 41.9104 15.1439 40.6692 14.1814 39.6918C13.38 38.878 12.5034 37.8108 12.0173 35.4311C11.8071 34.4025 11.374 33.4198 10.6373 32.6718Z" fill="url(#paint0_linear_10_2)"/>
<path d="M34.6718 43.3627L33.8299 44.1917C32.4967 45.5045 32.496 47.8484 34.361 48H36.4696C37.6687 48 38.8791 47.9617 40.0356 47.645C40.8725 47.4158 41.6351 47.0941 42.6692 46.5562C44.4165 45.6423 45.2622 44.9993 46.579 43.6687C47.6038 42.6223 48.2943 41.7699 48.8466 40.7628C49.8339 38.9624 50 36.8494 50 34.7961C50 33.0186 49.863 31.2098 49.142 29.5852C49.069 29.4208 48.9925 29.2579 48.9115 29.0947C48.1299 27.5196 46.9138 26.213 45.6402 25.0006L34.2077 14.118C33.354 13.3053 32.2406 12.3201 31.4178 13.164C31.1414 13.4475 30.8741 14.0195 30.7645 14.3999C30.5977 14.9787 30.5073 15.4603 30.4513 16.237C30.3965 18.1892 31.6562 19.8298 33.0477 21.2001L42.1805 30.1935C43.6338 31.8143 44.0513 32.8713 44.1354 35.0061C43.9104 37.2786 42.6692 38.8561 41.6918 39.8186C40.878 40.62 39.8108 41.4966 37.4311 41.9827C36.4025 42.1929 35.4198 42.626 34.6718 43.3627Z" fill="url(#paint1_linear_10_2)"/>
<path d="M45.3627 19.3282L46.1917 20.1701C47.5045 21.5033 49.8484 21.504 50 19.639V17.5304C50 16.3313 49.9617 15.1209 49.645 13.9644C49.4158 13.1275 49.0941 12.3649 48.5562 11.3308C47.6423 9.5835 46.9993 8.73777 45.6687 7.42103C44.6223 6.39622 43.7699 5.70574 42.7628 5.15343C40.9624 4.16611 38.8494 4 36.7961 4C35.0186 4 33.2098 4.13701 31.5852 4.85802C31.4208 4.93098 31.2579 5.00751 31.0947 5.08848C29.5196 5.87005 28.213 7.08619 27.0006 8.35981L16.118 19.7923C15.3053 20.646 14.3201 21.7594 15.164 22.5822C15.4475 22.8586 16.0195 23.1259 16.3999 23.2355C16.9787 23.4023 17.4603 23.4927 18.237 23.5487C20.1892 23.6035 21.8298 22.3438 23.2001 20.9523L32.1935 11.8195C33.8143 10.3662 34.8713 9.94865 37.0061 9.86462C39.2786 10.0896 40.8561 11.3308 41.8186 12.3082C42.62 13.122 43.4966 14.1892 43.9827 16.5689C44.1929 17.5975 44.626 18.5802 45.3627 19.3282Z" fill="url(#paint2_linear_10_2)"/>
<path d="M21.3282 8.63735L22.1701 7.80834C23.5033 6.49545 23.504 4.15157 21.639 4H19.5304C18.3313 4 17.1209 4.03827 15.9644 4.35497C15.1275 4.58415 14.3649 4.90595 13.3308 5.44377C11.5835 6.35769 10.7378 7.00068 9.42103 8.33131C8.39622 9.37766 7.70574 10.2301 7.15343 11.2372C6.16611 13.0376 6 15.1506 6 17.2039C6 18.9814 6.13701 20.7902 6.85802 22.4148C6.93098 22.5792 7.00751 22.7421 7.08848 22.9053C7.87005 24.4804 9.08619 25.787 10.3598 26.9994L21.7923 37.882C22.646 38.6947 23.7594 39.6799 24.5822 38.836C24.8586 38.5525 25.1259 37.9805 25.2355 37.6001C25.4023 37.0213 25.4927 36.5397 25.5487 35.763C25.6035 33.8108 24.3438 32.1702 22.9523 30.7999L13.8195 21.8065C12.3662 20.1857 11.9487 19.1287 11.8646 16.9939C12.0896 14.7214 13.3308 13.1439 14.3082 12.1814C15.122 11.38 16.1892 10.5034 18.5689 10.0173C19.5975 9.80713 20.5802 9.37396 21.3282 8.63735Z" fill="url(#paint3_linear_10_2)"/>
<defs>
<linearGradient id="paint0_linear_10_2" x1="23.6" y1="28.4444" x2="23.6" y2="48" gradientUnits="userSpaceOnUse">
<stop stop-color="#6446E6"/>
<stop offset="1" stop-color="#8580F9"/>
</linearGradient>
<linearGradient id="paint1_linear_10_2" x1="30.4444" y1="30.4" x2="50" y2="30.4" gradientUnits="userSpaceOnUse">
<stop stop-color="#6446E6"/>
<stop offset="1" stop-color="#8580F9"/>
</linearGradient>
<linearGradient id="paint2_linear_10_2" x1="32.4" y1="23.5556" x2="32.4" y2="4" gradientUnits="userSpaceOnUse">
<stop stop-color="#6446E6"/>
<stop offset="1" stop-color="#8580F9"/>
</linearGradient>
<linearGradient id="paint3_linear_10_2" x1="25.5556" y1="21.6" x2="6" y2="21.6" gradientUnits="userSpaceOnUse">
<stop stop-color="#6446E6"/>
<stop offset="1" stop-color="#8580F9"/>
</linearGradient>
</defs>
</svg>
