<svg width="164" height="52" viewBox="0 0 164 52" fill="none" xmlns="http://www.w3.org/2000/svg">
<path d="M74.847 16.481V35.279H71.337V27.063H62.51V35.279H59V16.481H62.51V24.567H71.337V16.481H74.847ZM81.6765 21.941V35.279H78.4525V21.941H81.6765ZM82.1185 18.054C82.1185 18.3313 82.0622 18.5913 81.9495 18.834C81.8368 19.0767 81.6852 19.289 81.4945 19.471C81.3125 19.653 81.0958 19.8003 80.8445 19.913C80.5932 20.017 80.3245 20.069 80.0385 20.069C79.7612 20.069 79.4968 20.017 79.2455 19.913C79.0028 19.8003 78.7905 19.653 78.6085 19.471C78.4265 19.289 78.2792 19.0767 78.1665 18.834C78.0625 18.5913 78.0105 18.3313 78.0105 18.054C78.0105 17.768 78.0625 17.4993 78.1665 17.248C78.2792 16.9967 78.4265 16.78 78.6085 16.598C78.7905 16.416 79.0028 16.273 79.2455 16.169C79.4968 16.0563 79.7612 16 80.0385 16C80.3245 16 80.5932 16.0563 80.8445 16.169C81.0958 16.273 81.3125 16.416 81.4945 16.598C81.6852 16.78 81.8368 16.9967 81.9495 17.248C82.0622 17.4993 82.1185 17.768 82.1185 18.054ZM87.9791 24.255C88.3951 23.4577 88.8891 22.8337 89.4611 22.383C90.0331 21.9237 90.7091 21.694 91.4891 21.694C92.1044 21.694 92.5984 21.8283 92.9711 22.097L92.7631 24.502C92.7197 24.658 92.6547 24.7707 92.5681 24.84C92.4901 24.9007 92.3817 24.931 92.2431 24.931C92.1131 24.931 91.9181 24.9093 91.6581 24.866C91.4067 24.8227 91.1597 24.801 90.9171 24.801C90.5617 24.801 90.2454 24.853 89.9681 24.957C89.6907 25.061 89.4394 25.2127 89.2141 25.412C88.9974 25.6027 88.8024 25.8367 88.6291 26.114C88.4644 26.3913 88.3084 26.7077 88.1611 27.063V35.279H84.9501V21.941H86.8351C87.1644 21.941 87.3941 22.0017 87.5241 22.123C87.6541 22.2357 87.7407 22.4437 87.7841 22.747L87.9791 24.255ZM102.861 27.076C102.861 26.66 102.8 26.27 102.679 25.906C102.566 25.5333 102.393 25.2083 102.159 24.931C101.925 24.6537 101.626 24.437 101.262 24.281C100.907 24.1163 100.491 24.034 100.014 24.034C99.0871 24.034 98.3548 24.2983 97.8174 24.827C97.2888 25.3557 96.9508 26.1053 96.8034 27.076H102.861ZM96.7384 29.013C96.7904 29.6977 96.9118 30.2913 97.1024 30.794C97.2931 31.288 97.5444 31.6997 97.8564 32.029C98.1684 32.3497 98.5368 32.5923 98.9614 32.757C99.3948 32.913 99.8714 32.991 100.391 32.991C100.911 32.991 101.357 32.9303 101.73 32.809C102.111 32.6877 102.441 32.5533 102.718 32.406C103.004 32.2587 103.251 32.1243 103.459 32.003C103.676 31.8817 103.884 31.821 104.083 31.821C104.352 31.821 104.551 31.9207 104.681 32.12L105.604 33.29C105.249 33.706 104.85 34.057 104.408 34.343C103.966 34.6203 103.502 34.8457 103.017 35.019C102.54 35.1837 102.051 35.3007 101.548 35.37C101.054 35.4393 100.573 35.474 100.105 35.474C99.1781 35.474 98.3158 35.3223 97.5184 35.019C96.7211 34.707 96.0278 34.252 95.4384 33.654C94.8491 33.0473 94.3854 32.302 94.0474 31.418C93.7094 30.5253 93.5404 29.494 93.5404 28.324C93.5404 27.414 93.6878 26.5603 93.9824 25.763C94.2771 24.957 94.6974 24.2593 95.2434 23.67C95.7981 23.072 96.4698 22.5997 97.2584 22.253C98.0558 21.9063 98.9528 21.733 99.9494 21.733C100.79 21.733 101.565 21.8673 102.276 22.136C102.987 22.4047 103.598 22.799 104.109 23.319C104.62 23.8303 105.019 24.463 105.305 25.217C105.6 25.9623 105.747 26.816 105.747 27.778C105.747 28.2633 105.695 28.5927 105.591 28.766C105.487 28.9307 105.288 29.013 104.993 29.013H96.7384ZM118.42 19.9C118.316 20.082 118.203 20.2163 118.082 20.303C117.969 20.381 117.826 20.42 117.653 20.42C117.471 20.42 117.271 20.355 117.055 20.225C116.847 20.0863 116.595 19.9347 116.301 19.77C116.006 19.6053 115.659 19.458 115.261 19.328C114.871 19.1893 114.407 19.12 113.87 19.12C113.384 19.12 112.96 19.1807 112.596 19.302C112.232 19.4147 111.924 19.575 111.673 19.783C111.43 19.991 111.248 20.2423 111.127 20.537C111.005 20.823 110.945 21.1393 110.945 21.486C110.945 21.928 111.066 22.2963 111.309 22.591C111.56 22.8857 111.889 23.137 112.297 23.345C112.704 23.553 113.168 23.7393 113.688 23.904C114.208 24.0687 114.741 24.2463 115.287 24.437C115.833 24.619 116.366 24.8357 116.886 25.087C117.406 25.3297 117.869 25.6417 118.277 26.023C118.684 26.3957 119.009 26.855 119.252 27.401C119.503 27.947 119.629 28.61 119.629 29.39C119.629 30.2393 119.481 31.0367 119.187 31.782C118.901 32.5187 118.476 33.1643 117.913 33.719C117.358 34.265 116.678 34.6983 115.872 35.019C115.066 35.331 114.143 35.487 113.103 35.487C112.505 35.487 111.915 35.4263 111.335 35.305C110.754 35.1923 110.195 35.0277 109.658 34.811C109.129 34.5943 108.631 34.3343 108.163 34.031C107.695 33.7277 107.279 33.3897 106.915 33.017L107.942 31.34C108.028 31.2187 108.141 31.119 108.28 31.041C108.418 30.9543 108.566 30.911 108.722 30.911C108.938 30.911 109.172 31.002 109.424 31.184C109.675 31.3573 109.974 31.5523 110.321 31.769C110.667 31.9857 111.07 32.185 111.53 32.367C111.998 32.5403 112.557 32.627 113.207 32.627C114.203 32.627 114.975 32.393 115.521 31.925C116.067 31.4483 116.34 30.768 116.34 29.884C116.34 29.39 116.214 28.987 115.963 28.675C115.72 28.363 115.395 28.103 114.988 27.895C114.58 27.6783 114.117 27.4963 113.597 27.349C113.077 27.2017 112.548 27.0413 112.011 26.868C111.473 26.6947 110.945 26.4867 110.425 26.244C109.905 26.0013 109.441 25.685 109.034 25.295C108.626 24.905 108.297 24.4197 108.046 23.839C107.803 23.2497 107.682 22.526 107.682 21.668C107.682 20.9833 107.816 20.316 108.085 19.666C108.362 19.016 108.761 18.4397 109.281 17.937C109.801 17.4343 110.442 17.0313 111.205 16.728C111.967 16.4247 112.843 16.273 113.831 16.273C114.94 16.273 115.963 16.4463 116.899 16.793C117.835 17.1397 118.632 17.625 119.291 18.249L118.42 19.9ZM125.129 31.821C125.493 32.263 125.888 32.575 126.312 32.757C126.746 32.939 127.214 33.03 127.716 33.03C128.202 33.03 128.639 32.939 129.029 32.757C129.419 32.575 129.749 32.2977 130.017 31.925C130.295 31.5523 130.507 31.0843 130.654 30.521C130.802 29.949 130.875 29.2773 130.875 28.506C130.875 27.726 130.81 27.0673 130.68 26.53C130.559 25.984 130.381 25.542 130.147 25.204C129.913 24.866 129.627 24.619 129.289 24.463C128.96 24.307 128.583 24.229 128.158 24.229C127.491 24.229 126.923 24.372 126.455 24.658C125.987 24.9353 125.545 25.3297 125.129 25.841V31.821ZM124.96 23.761C125.506 23.1457 126.126 22.6473 126.819 22.266C127.513 21.8847 128.327 21.694 129.263 21.694C129.991 21.694 130.654 21.8457 131.252 22.149C131.859 22.4523 132.379 22.8943 132.812 23.475C133.254 24.047 133.592 24.7577 133.826 25.607C134.069 26.4477 134.19 27.414 134.19 28.506C134.19 29.5027 134.056 30.4257 133.787 31.275C133.519 32.1243 133.133 32.861 132.63 33.485C132.136 34.109 131.534 34.5987 130.823 34.954C130.121 35.3007 129.333 35.474 128.457 35.474C127.712 35.474 127.075 35.3613 126.546 35.136C126.018 34.902 125.545 34.5813 125.129 34.174V39.634H121.918V21.941H123.881C124.297 21.941 124.57 22.136 124.7 22.526L124.96 23.761ZM142.598 21.733C143.586 21.733 144.483 21.8933 145.289 22.214C146.103 22.5347 146.797 22.9897 147.369 23.579C147.949 24.1683 148.396 24.8877 148.708 25.737C149.02 26.5863 149.176 27.5353 149.176 28.584C149.176 29.6413 149.02 30.5947 148.708 31.444C148.396 32.2933 147.949 33.017 147.369 33.615C146.797 34.213 146.103 34.6723 145.289 34.993C144.483 35.3137 143.586 35.474 142.598 35.474C141.601 35.474 140.695 35.3137 139.881 34.993C139.066 34.6723 138.368 34.213 137.788 33.615C137.216 33.017 136.769 32.2933 136.449 31.444C136.137 30.5947 135.981 29.6413 135.981 28.584C135.981 27.5353 136.137 26.5863 136.449 25.737C136.769 24.8877 137.216 24.1683 137.788 23.579C138.368 22.9897 139.066 22.5347 139.881 22.214C140.695 21.8933 141.601 21.733 142.598 21.733ZM142.598 33.004C143.707 33.004 144.526 32.6313 145.055 31.886C145.592 31.1407 145.861 30.0487 145.861 28.61C145.861 27.1713 145.592 26.075 145.055 25.321C144.526 24.567 143.707 24.19 142.598 24.19C141.471 24.19 140.635 24.5713 140.089 25.334C139.551 26.088 139.283 27.18 139.283 28.61C139.283 30.04 139.551 31.132 140.089 31.886C140.635 32.6313 141.471 33.004 142.598 33.004ZM155.818 35.487C154.656 35.487 153.764 35.162 153.14 34.512C152.524 33.8533 152.217 32.9477 152.217 31.795V24.346H150.852C150.678 24.346 150.531 24.2897 150.41 24.177C150.288 24.0643 150.228 23.8953 150.228 23.67V22.396L152.373 22.045L153.049 18.405C153.092 18.2317 153.174 18.0973 153.296 18.002C153.417 17.9067 153.573 17.859 153.764 17.859H155.428V22.058H158.99V24.346H155.428V31.574C155.428 31.99 155.527 32.315 155.727 32.549C155.935 32.783 156.216 32.9 156.572 32.9C156.771 32.9 156.936 32.8783 157.066 32.835C157.204 32.783 157.321 32.731 157.417 32.679C157.521 32.627 157.612 32.5793 157.69 32.536C157.768 32.484 157.846 32.458 157.924 32.458C158.019 32.458 158.097 32.484 158.158 32.536C158.218 32.5793 158.283 32.6487 158.353 32.744L159.315 34.304C158.847 34.694 158.309 34.9887 157.703 35.188C157.096 35.3873 156.468 35.487 155.818 35.487Z" fill="#313131"/>
<path d="M10.6373 32.6718L9.80834 31.8299C8.49545 30.4967 6.15157 30.496 6 32.361V34.4696C6 35.6687 6.03827 36.8791 6.35497 38.0356C6.58415 38.8725 6.90595 39.6351 7.44377 40.6692C8.35769 42.4165 9.00068 43.2622 10.3313 44.579C11.3777 45.6038 12.2301 46.2943 13.2372 46.8466C15.0376 47.8339 17.1506 48 19.2039 48C20.9814 48 22.7902 47.863 24.4148 47.142C24.5792 47.069 24.7421 46.9925 24.9053 46.9115C26.4804 46.1299 27.787 44.9138 28.9994 43.6402L39.882 32.2077C40.6947 31.354 41.6799 30.2406 40.836 29.4178C40.5525 29.1414 39.9805 28.8741 39.6001 28.7645C39.0213 28.5977 38.5397 28.5073 37.763 28.4513C35.8108 28.3965 34.1702 29.6562 32.7999 31.0477L23.8065 40.1805C22.1857 41.6338 21.1287 42.0513 18.9939 42.1354C16.7214 41.9104 15.1439 40.6692 14.1814 39.6918C13.38 38.878 12.5034 37.8108 12.0173 35.4311C11.8071 34.4025 11.374 33.4198 10.6373 32.6718Z" fill="url(#paint0_linear_10_2)"/>
<path d="M34.6718 43.3627L33.8299 44.1917C32.4967 45.5045 32.496 47.8484 34.361 48H36.4696C37.6687 48 38.8791 47.9617 40.0356 47.645C40.8725 47.4158 41.6351 47.0941 42.6692 46.5562C44.4165 45.6423 45.2622 44.9993 46.579 43.6687C47.6038 42.6223 48.2943 41.7699 48.8466 40.7628C49.8339 38.9624 50 36.8494 50 34.7961C50 33.0186 49.863 31.2098 49.142 29.5852C49.069 29.4208 48.9925 29.2579 48.9115 29.0947C48.1299 27.5196 46.9138 26.213 45.6402 25.0006L34.2077 14.118C33.354 13.3053 32.2406 12.3201 31.4178 13.164C31.1414 13.4475 30.8741 14.0195 30.7645 14.3999C30.5977 14.9787 30.5073 15.4603 30.4513 16.237C30.3965 18.1892 31.6562 19.8298 33.0477 21.2001L42.1805 30.1935C43.6338 31.8143 44.0513 32.8713 44.1354 35.0061C43.9104 37.2786 42.6692 38.8561 41.6918 39.8186C40.878 40.62 39.8108 41.4966 37.4311 41.9827C36.4025 42.1929 35.4198 42.626 34.6718 43.3627Z" fill="url(#paint1_linear_10_2)"/>
<path d="M45.3627 19.3282L46.1917 20.1701C47.5045 21.5033 49.8484 21.504 50 19.639V17.5304C50 16.3313 49.9617 15.1209 49.645 13.9644C49.4158 13.1275 49.0941 12.3649 48.5562 11.3308C47.6423 9.5835 46.9993 8.73777 45.6687 7.42103C44.6223 6.39622 43.7699 5.70574 42.7628 5.15343C40.9624 4.16611 38.8494 4 36.7961 4C35.0186 4 33.2098 4.13701 31.5852 4.85802C31.4208 4.93098 31.2579 5.00751 31.0947 5.08848C29.5196 5.87005 28.213 7.08619 27.0006 8.35981L16.118 19.7923C15.3053 20.646 14.3201 21.7594 15.164 22.5822C15.4475 22.8586 16.0195 23.1259 16.3999 23.2355C16.9787 23.4023 17.4603 23.4927 18.237 23.5487C20.1892 23.6035 21.8298 22.3438 23.2001 20.9523L32.1935 11.8195C33.8143 10.3662 34.8713 9.94865 37.0061 9.86462C39.2786 10.0896 40.8561 11.3308 41.8186 12.3082C42.62 13.122 43.4966 14.1892 43.9827 16.5689C44.1929 17.5975 44.626 18.5802 45.3627 19.3282Z" fill="url(#paint2_linear_10_2)"/>
<path d="M21.3282 8.63735L22.1701 7.80834C23.5033 6.49545 23.504 4.15157 21.639 4H19.5304C18.3313 4 17.1209 4.03827 15.9644 4.35497C15.1275 4.58415 14.3649 4.90595 13.3308 5.44377C11.5835 6.35769 10.7378 7.00068 9.42103 8.33131C8.39622 9.37766 7.70574 10.2301 7.15343 11.2372C6.16611 13.0376 6 15.1506 6 17.2039C6 18.9814 6.13701 20.7902 6.85802 22.4148C6.93098 22.5792 7.00751 22.7421 7.08848 22.9053C7.87005 24.4804 9.08619 25.787 10.3598 26.9994L21.7923 37.882C22.646 38.6947 23.7594 39.6799 24.5822 38.836C24.8586 38.5525 25.1259 37.9805 25.2355 37.6001C25.4023 37.0213 25.4927 36.5397 25.5487 35.763C25.6035 33.8108 24.3438 32.1702 22.9523 30.7999L13.8195 21.8065C12.3662 20.1857 11.9487 19.1287 11.8646 16.9939C12.0896 14.7214 13.3308 13.1439 14.3082 12.1814C15.122 11.38 16.1892 10.5034 18.5689 10.0173C19.5975 9.80713 20.5802 9.37396 21.3282 8.63735Z" fill="url(#paint3_linear_10_2)"/>
<defs>
<linearGradient id="paint0_linear_10_2" x1="23.6" y1="28.4444" x2="23.6" y2="48" gradientUnits="userSpaceOnUse">
<stop stop-color="#6446E6"/>
<stop offset="1" stop-color="#8580F9"/>
</linearGradient>
<linearGradient id="paint1_linear_10_2" x1="30.4444" y1="30.4" x2="50" y2="30.4" gradientUnits="userSpaceOnUse">
<stop stop-color="#6446E6"/>
<stop offset="1" stop-color="#8580F9"/>
</linearGradient>
<linearGradient id="paint2_linear_10_2" x1="32.4" y1="23.5556" x2="32.4" y2="4" gradientUnits="userSpaceOnUse">
<stop stop-color="#6446E6"/>
<stop offset="1" stop-color="#8580F9"/>
</linearGradient>
<linearGradient id="paint3_linear_10_2" x1="25.5556" y1="21.6" x2="6" y2="21.6" gradientUnits="userSpaceOnUse">
<stop stop-color="#6446E6"/>
<stop offset="1" stop-color="#8580F9"/>
</linearGradient>
</defs>
</svg>
