<svg width="48" height="48" viewBox="0 0 48 48" fill="none" xmlns="http://www.w3.org/2000/svg">
<path d="M6.63735 30.6718L5.80834 29.8299C4.49545 28.4967 2.15157 28.496 2 30.361V32.4696C2 33.6687 2.03827 34.8791 2.35497 36.0356C2.58415 36.8725 2.90595 37.6351 3.44377 38.6692C4.35769 40.4165 5.00068 41.2622 6.33131 42.579C7.37766 43.6038 8.23011 44.2943 9.23724 44.8466C11.0376 45.8339 13.1506 46 15.2039 46C16.9814 46 18.7902 45.863 20.4148 45.142C20.5792 45.069 20.7421 44.9925 20.9053 44.9115C22.4804 44.1299 23.787 42.9138 24.9994 41.6402L35.882 30.2077C36.6947 29.354 37.6799 28.2406 36.836 27.4178C36.5525 27.1414 35.9805 26.8741 35.6001 26.7645C35.0213 26.5977 34.5397 26.5073 33.763 26.4513C31.8108 26.3965 30.1702 27.6562 28.7999 29.0477L19.8065 38.1805C18.1857 39.6338 17.1287 40.0513 14.9939 40.1354C12.7214 39.9104 11.1439 38.6692 10.1814 37.6918C9.38003 36.878 8.50342 35.8108 8.01726 33.4311C7.80713 32.4025 7.37396 31.4198 6.63735 30.6718Z" fill="url(#paint0_linear_2_33)"/>
<path d="M30.6718 41.3627L29.8299 42.1917C28.4967 43.5045 28.496 45.8484 30.361 46H32.4696C33.6687 46 34.8791 45.9617 36.0356 45.645C36.8725 45.4158 37.6351 45.0941 38.6692 44.5562C40.4165 43.6423 41.2622 42.9993 42.579 41.6687C43.6038 40.6223 44.2943 39.7699 44.8466 38.7628C45.8339 36.9624 46 34.8494 46 32.7961C46 31.0186 45.863 29.2098 45.142 27.5852C45.069 27.4208 44.9925 27.2579 44.9115 27.0947C44.1299 25.5196 42.9138 24.213 41.6402 23.0006L30.2077 12.118C29.354 11.3053 28.2406 10.3201 27.4178 11.164C27.1414 11.4475 26.8741 12.0195 26.7645 12.3999C26.5977 12.9787 26.5073 13.4603 26.4513 14.237C26.3965 16.1892 27.6562 17.8298 29.0477 19.2001L38.1805 28.1935C39.6338 29.8143 40.0513 30.8713 40.1354 33.0061C39.9104 35.2786 38.6692 36.8561 37.6918 37.8186C36.878 38.62 35.8108 39.4966 33.4311 39.9827C32.4025 40.1929 31.4198 40.626 30.6718 41.3627Z" fill="url(#paint1_linear_2_33)"/>
<path d="M41.3627 17.3282L42.1917 18.1701C43.5045 19.5033 45.8484 19.504 46 17.639V15.5304C46 14.3313 45.9617 13.1209 45.645 11.9644C45.4158 11.1275 45.0941 10.3649 44.5562 9.33078C43.6423 7.5835 42.9993 6.73777 41.6687 5.42103C40.6223 4.39622 39.7699 3.70574 38.7628 3.15343C36.9624 2.16611 34.8494 2 32.7961 2C31.0186 2 29.2098 2.13701 27.5852 2.85802C27.4208 2.93098 27.2579 3.00751 27.0947 3.08848C25.5196 3.87005 24.213 5.08619 23.0006 6.35981L12.118 17.7923C11.3053 18.646 10.3201 19.7594 11.164 20.5822C11.4475 20.8586 12.0195 21.1259 12.3999 21.2355C12.9787 21.4023 13.4603 21.4927 14.237 21.5487C16.1892 21.6035 17.8298 20.3438 19.2001 18.9523L28.1935 9.81949C29.8143 8.3662 30.8713 7.94865 33.0061 7.86462C35.2786 8.08959 36.8561 9.33078 37.8186 10.3082C38.62 11.122 39.4966 12.1892 39.9827 14.5689C40.1929 15.5975 40.626 16.5802 41.3627 17.3282Z" fill="url(#paint2_linear_2_33)"/>
<path d="M17.3282 6.63735L18.1701 5.80834C19.5033 4.49545 19.504 2.15157 17.639 2H15.5304C14.3313 2 13.1209 2.03827 11.9644 2.35497C11.1275 2.58415 10.3649 2.90595 9.33078 3.44377C7.5835 4.35769 6.73777 5.00068 5.42103 6.33131C4.39622 7.37766 3.70574 8.23011 3.15343 9.23724C2.16611 11.0376 2 13.1506 2 15.2039C2 16.9814 2.13701 18.7902 2.85802 20.4148C2.93098 20.5792 3.00751 20.7421 3.08848 20.9053C3.87005 22.4804 5.08619 23.787 6.35981 24.9994L17.7923 35.882C18.646 36.6947 19.7594 37.6799 20.5822 36.836C20.8586 36.5525 21.1259 35.9805 21.2355 35.6001C21.4023 35.0213 21.4927 34.5397 21.5487 33.763C21.6035 31.8108 20.3438 30.1702 18.9523 28.7999L9.81949 19.8065C8.3662 18.1857 7.94865 17.1287 7.86462 14.9939C8.08959 12.7214 9.33078 11.1439 10.3082 10.1814C11.122 9.38003 12.1892 8.50342 14.5689 8.01726C15.5975 7.80713 16.5802 7.37396 17.3282 6.63735Z" fill="url(#paint3_linear_2_33)"/>
<defs>
<linearGradient id="paint0_linear_2_33" x1="19.6" y1="26.4444" x2="19.6" y2="46" gradientUnits="userSpaceOnUse">
<stop stop-color="#6446E6"/>
<stop offset="1" stop-color="#8580F9"/>
</linearGradient>
<linearGradient id="paint1_linear_2_33" x1="26.4444" y1="28.4" x2="46" y2="28.4" gradientUnits="userSpaceOnUse">
<stop stop-color="#6446E6"/>
<stop offset="1" stop-color="#8580F9"/>
</linearGradient>
<linearGradient id="paint2_linear_2_33" x1="28.4" y1="21.5556" x2="28.4" y2="2" gradientUnits="userSpaceOnUse">
<stop stop-color="#6446E6"/>
<stop offset="1" stop-color="#8580F9"/>
</linearGradient>
<linearGradient id="paint3_linear_2_33" x1="21.5556" y1="19.6" x2="2" y2="19.6" gradientUnits="userSpaceOnUse">
<stop stop-color="#6446E6"/>
<stop offset="1" stop-color="#8580F9"/>
</linearGradient>
</defs>
</svg>
